# xmcd CD database file
# Copyright (C) 1993-1996 Ti Kan
#
# Track frame offsets:
# 182
# 13752
# 24575
# 36055
# 46860
# 59700
# 73382
# 83375
# 96757
# 108260
# 119197
#
# Disc length: 1740 seconds
#
# Revision: 0
# Processed by: cddbd v1.4b41PL1 Copyright (c) Steve Scherf et al.
# Submitted via: inCDius 1.1b5
#
DISCID=9306ca0b
DTITLE=Willie Nelson - Greatest Songs
DYEAR=1900
DGENRE=
TTITLE0=Good Hearted Woman
TTITLE1=Night Life
TTITLE2=One Day At A Time
TTITLE3=Hello Walls
TTITLE4=Crazy
TTITLE5=Funny How The Time Slips Away
TTITLE6=Touch Me
TTITLE7=Three Days
TTITLE8=Undo The Right
TTITLE9=Half A Man
TTITLE10=Darkness On The Face Of The Earth
EXTD=
EXTT0=
EXTT1=
EXTT2=
EXTT3=
EXTT4=
EXTT5=
EXTT6=
EXTT7=
EXTT8=
EXTT9=
EXTT10=
PLAYORDER=
